PathFileType	4	(X/Y/Z)	pose2sim_0-881_filt_butterworth_LSTM.trc
DataRate	CameraRate	NumFrames	NumMarkers	Units	OrigDataRate	OrigDataStartFrame	OrigNumFrames
50	50	4	65	m	50	0	881
Frame#	Time	Hip			RHip			RKnee			RAnkle			RBigToe			RSmallToe			RHeel			LHip			LKnee			LAnkle			LBigToe			LSmallToe			LHeel			Neck			Head			Nose			RShoulder			RElbow			RWrist			LShoulder			LElbow			LWrist			r.ASIS_study			L.ASIS_study			r.PSIS_study			L.PSIS_study			r_knee_study			r_mknee_study			r_ankle_study			r_mankle_study			r_toe_study			r_5meta_study			r_calc_study			L_knee_study			L_mknee_study			L_ankle_study			L_mankle_study			L_toe_study			L_calc_study			L_5meta_study			r_shoulder_study			L_shoulder_study			C7_study			r_thigh1_study			r_thigh2_study			r_thigh3_study			L_thigh1_study			L_thigh2_study			L_thigh3_study			r_sh1_study			r_sh2_study			r_sh3_study			L_sh1_study			L_sh2_study			L_sh3_study			RHJC_study			LHJC_study			r_lelbow_study			r_melbow_study			r_lwrist_study			r_mwrist_study			L_lelbow_study			L_melbow_study			L_lwrist_study			L_mwrist_study			
		X1	Y1	Z1	X2	Y2	Z2	X3	Y3	Z3	X4	Y4	Z4	X5	Y5	Z5	X6	Y6	Z6	X7	Y7	Z7	X8	Y8	Z8	X9	Y9	Z9	X10	Y10	Z10	X11	Y11	Z11	X12	Y12	Z12	X13	Y13	Z13	X14	Y14	Z14	X15	Y15	Z15	X16	Y16	Z16	X17	Y17	Z17	X18	Y18	Z18	X19	Y19	Z19	X20	Y20	Z20	X21	Y21	Z21	X22	Y22	Z22	X23	Y23	Z23	X24	Y24	Z24	X25	Y25	Z25	X26	Y26	Z26	X27	Y27	Z27	X28	Y28	Z28	X29	Y29	Z29	X30	Y30	Z30	X31	Y31	Z31	X32	Y32	Z32	X33	Y33	Z33	X34	Y34	Z34	X35	Y35	Z35	X36	Y36	Z36	X37	Y37	Z37	X38	Y38	Z38	X39	Y39	Z39	X40	Y40	Z40	X41	Y41	Z41	X42	Y42	Z42	X43	Y43	Z43	X44	Y44	Z44	X45	Y45	Z45	X46	Y46	Z46	X47	Y47	Z47	X48	Y48	Z48	X49	Y49	Z49	X50	Y50	Z50	X51	Y51	Z51	X52	Y52	Z52	X53	Y53	Z53	X54	Y54	Z54	X55	Y55	Z55	X56	Y56	Z56	X57	Y57	Z57	X58	Y58	Z58	X59	Y59	Z59	X60	Y60	Z60	X61	Y61	Z61	X62	Y62	Z62	X63	Y63	Z63	X64	Y64	Z64	X65	Y65	Z65	
0	0.0	0.128789747730683	0.9913942860132	-0.0074000757367035	0.0261827157191196	0.9656412091029754	-0.0053975961014799	0.0097544694978953	0.5191693807524095	-0.0664801089568423	0.0003100603793161	0.1001989088943277	-0.0815706608541891	0.0017269857400328	0.048926477702604	0.1197086730854591	-0.0521566148333246	0.0441239337581706	0.0644347296680154	-0.0001610498377837	0.0331018672783983	-0.156743462559047	0.2319162436846026	0.9669510401209928	-0.0171665515582393	0.2378608510185956	0.5156722725625437	-0.1098243667894379	0.2369758863035889	0.098461527233107	-0.1089946675167673	0.2644011748090385	0.0436278853561482	0.0638365854035465	0.3127405892181528	0.0438025900650302	0.0125009576369398	0.2248384546487433	0.0382803921100657	-0.1591544434826656	0.1424506385457325	1.572184149928583	-0.0447239455918042	0.1453364582962363	1.8274665072407976	-0.0164518170056191	0.1386507239671449	1.7058050760111605	0.0572863498117292	-0.0188126955511455	1.4727323965989647	-0.0285810302743107	-0.0704740103403738	1.195276908083087	-0.0341280385562462	-0.1359160411176237	0.9469139132416824	0.0044017501848889	0.3103610192609193	1.4704435125433546	-0.0716876893014459	0.3533070778401809	1.1975159013399304	-0.0834616713423588	0.401943684565659	0.9478788920425718	-0.0588059905783237	-0.0097891878032359	1.062163726622583	0.07042824398561756	0.2862506862508681	1.047234286798357	0.036201352376656046	0.054652106704169784	1.0790334776968986	-0.14377097165408986	0.16975739752773733	1.0737761359563702	-0.15706477404547012	-0.03950249501098599	0.5324147181163341	-0.038591974935310476	0.08634190688256263	0.5300658111829566	-0.035375753428248086	-0.054125624453147614	0.09829609728933453	-0.10555466007954699	0.04304611406827909	0.09754491403714882	-0.07932566074385614	-0.010583480900377223	0.054458308301907565	0.06657453615769957	-0.07739011617955707	0.05250577736783146	0.015970267638432154	0.003643627131527216	0.0612526708068617	-0.18500124919056576	0.2996627031743824	0.5235215703345945	-0.09227272278310868	0.18538521752214704	0.5242760267164193	-0.05383826734664637	0.2797950926635664	0.08709632049872296	-0.14975138864602752	0.19852869802533915	0.08870309983858327	-0.0989326414881345	0.2845604421052094	0.043653925571705776	0.01767699846989304	0.2065633993690101	0.05290084411527729	-0.20407156623540457	0.33165183105827584	0.03801279574294669	-0.04722054132837524	-0.013413537890710314	1.5495997063077238	-0.026797787573698603	0.306267674215591	1.539172006246828	-0.06412358967774921	0.13024441582886684	1.5628491714305337	-0.13780915694893475	-0.04893778216529074	0.807611629941275	0.06786771558302855	-0.0690458995143837	0.7011227574264969	0.022635208551748064	-0.08434179347779291	0.8245344057157449	-0.061277426161983464	0.3272991959880497	0.801726488297917	0.007605293876130479	0.33698583222256107	0.6925753339628927	-0.04099270983081803	0.31970715815199385	0.8127733281061391	-0.11586895301746639	-0.055109663603078674	0.4006368277270492	-0.05640776617015267	-0.07015000796991103	0.2671378712213369	-0.038561862142630264	-0.07352895516268992	0.2905464761181503	-0.12069877629398064	0.3062992599166088	0.3919932015281343	-0.10914676302105565	0.3214784668083822	0.25926910391233093	-0.09632236833405046	0.3001164953227706	0.27766943859611537	-0.17081922851944067	0.03441206859257878	0.9715182471935632	-0.03249140680953558	0.2132456844599035	0.9629067556267826	-0.052931477465709365	-0.12474943806966846	1.1915610834633519	-0.03538446131689225	-0.05482415123226336	1.1760367114130896	-0.06752373720396172	-0.11716922441443409	0.9425957281066325	0.0477382819771606	-0.14065496606641012	0.9327785553706996	-0.016386924525761536	0.3936641633365463	1.1804576185123725	-0.104645030076746	0.31995811172903577	1.1706773025799804	-0.11900174722334081	0.39093358221116314	0.9344296617506002	-0.016877676615369402	0.3994702588991187	0.9207549659450136	-0.08783683429670665
1	0.02	0.1299873950115464	0.988767053508714	-0.0099059355715237	0.0256712791872349	0.968410920217686	-0.0038457792865674	0.00899782290417	0.5189247795870876	-0.0662382713632917	5.532770865061452e-05	0.0980498780067174	-0.0809109088983077	-0.0002728681654164	0.0516500364666441	0.1165541477037716	-0.0531821865314786	0.0497602831764543	0.061654437019485	0.0021919566193388	0.0381825165478388	-0.1448641967456757	0.2351222347557984	0.96837223634553	-0.0196558211073935	0.2379049155943469	0.5138181329425995	-0.1046975633519714	0.2391883454256064	0.0949068438651661	-0.1118753646579494	0.2617656345963003	0.0420859166947679	0.0528514352475893	0.3136969927834552	0.041743845508516	0.0015121240717817	0.2276089882912174	0.0366470664381081	-0.1645437924215597	0.1427115877767893	1.573834949695587	-0.043926147964917	0.1461375088394093	1.8288156658522197	-0.0157829725954531	0.1392005826910855	1.703766550622165	0.0463416043025122	-0.0194025399506364	1.471967956738291	-0.0322307075925441	-0.0714059732528945	1.195289345808636	-0.0312194851258151	-0.1361876104426007	0.9467693781818496	0.0083005408247368	0.3120361598510733	1.4726317582368291	-0.0673818616311117	0.3543205245724211	1.19867788691814	-0.0831314717894037	0.4040781644442927	0.9487869703368556	-0.0628834903339767	-0.016247908993877846	1.0557468646218853	0.06877058160168348	0.2889978603789869	1.0488977044715557	0.03612322052833629	0.054676937083163984	1.076045150803013	-0.15102306039824437	0.17392691355006018	1.0737305776357462	-0.16409172602261152	-0.045755227243003876	0.5270001975154666	-0.04631256104465914	0.08459613096423688	0.5253616688181065	-0.041738809019757996	-0.05565808096626165	0.09541890678473852	-0.10793027663080922	0.044968145852407576	0.0953173852137641	-0.08083908039600478	-0.010632186833942653	0.05687671424049745	0.06832592694020453	-0.07992500955878223	0.04938692079154461	0.014449394797334354	0.0038386193376368782	0.0561848837391018	-0.1869935549850028	0.2994200779477373	0.5228236295437465	-0.09978501169553569	0.18584527526735745	0.5222614695282219	-0.06125708113179524	0.28291922222179433	0.08893003637943875	-0.15055515287828727	0.20186704028040953	0.08989031806340564	-0.09974343613009837	0.28460823894383835	0.04929090898879618	0.015394597923145856	0.21062905148696054	0.05217279053174917	-0.20313916704077636	0.33267890737081884	0.04176467469652745	-0.04839695477956262	-0.016729318173596436	1.5516864896617069	-0.030022713076120255	0.3106370386689544	1.544812153689236	-0.06545342426175182	0.13246978362373757	1.56656722804451	-0.14402685489887587	-0.054314420335268815	0.8021711425119369	0.06589801484016189	-0.07577259455619112	0.694967527588289	0.018247166203523228	-0.09004539002264206	0.8191383101071378	-0.06841498946386801	0.3262074936569279	0.7993492410696212	0.0032236648162923594	0.3363365615523717	0.6912985674714409	-0.046717419904942055	0.32342436516279616	0.8130838385571143	-0.11989985941744916	-0.06117919604158514	0.3977500360421784	-0.06252415393874194	-0.07499090300816055	0.26613945712961484	-0.043311885352865113	-0.0792541543631575	0.2849313126704027	-0.12624706468055433	0.30794532595803614	0.3929891598777089	-0.11592372290298668	0.32394604747511657	0.2612287261798327	-0.10185180894911869	0.3016679815556667	0.27879261258433163	-0.17509744713974176	0.03429913430886504	0.966494499062245	-0.03632991796742693	0.2186659008219572	0.9626398894189213	-0.05614513794695626	-0.12857844507997382	1.1872508895266543	-0.04379158295854325	-0.04779572353613226	1.1706102166129588	-0.06578557532041501	-0.12605608955180145	0.9359580525976536	0.04396799170567531	-0.14313528000890244	0.9266018388002147	-0.02141883665001583	0.39517033036198024	1.17905037689068	-0.11198481141914948	0.31402395047718856	1.1671660113979994	-0.11366178575172943	0.3983786793103584	0.9366832792498987	-0.016292472516270598	0.40388784746249906	0.9203657631073789	-0.0833297138427577
2	0.04	0.1308364131922398	0.987112031355234	-0.012073351695418	0.0254660840208189	0.9705804004996929	-0.0027996651687186	0.0083610610979906	0.5188927464526881	-0.0663730591519176	-7.028966193160769e-05	0.0965893778355509	-0.0803240193241769	-0.0017175944292413	0.0535979435907966	0.1144607015248031	-0.0540807965675028	0.0540681324890904	0.0597095696721818	0.0036580768923862	0.041626524070874	-0.1364041022694901	0.2374956744589055	0.9694026463825514	-0.0212217532262525	0.2378816045534653	0.5123865199429175	-0.100876519230639	0.2408548320507392	0.0923775907201977	-0.1135726177975069	0.2597744651259535	0.0409210552388636	0.0449602816531926	0.3142980602649348	0.0401437817363207	-0.0064719669415888	0.2299213647575577	0.035312872334826	-0.1687887224835368	0.1430127221396057	1.5749362422528024	-0.0429441447111772	0.1466543045436729	1.82983242239612	-0.0154871507217487	0.1396053997861045	1.7025304788207798	0.0377517512717682	-0.0198437116919381	1.4713804363783385	-0.0346784175095318	-0.072067804160763	1.1953392007150292	-0.0293428937515436	-0.136367687650675	0.9465117297072876	0.0110663348311892	0.3130699167562513	1.474176750977399	-0.064281955497368	0.3549245519557283	1.1996187453112994	-0.0826062674092656	0.4055908550539103	0.9495629819750174	-0.0653482444726557	-0.017632106251858126	1.0525757833717102	0.06647369274350043	0.29216837303233	1.050332414412135	0.03598091698826636	0.05690242901948271	1.0761985941463459	-0.15368366896855826	0.17767301968848848	1.0752403786254638	-0.1655210104987563	-0.047684455138063825	0.5268784729414479	-0.05014575126064941	0.08271322467259101	0.5244224255645487	-0.04563816759710976	-0.05730056906689163	0.09701764825337988	-0.10719688161200407	0.04243467094987964	0.09651800501396324	-0.07952051116889979	-0.013884059140104071	0.058024582101345534	0.0700089727906694	-0.0824235165263319	0.049838266665180986	0.014888896869643963	0.00344469381394219	0.0563469940569582	-0.18492086350805703	0.3008254599768859	0.5226788839579324	-0.10313337981225652	0.18556216904851836	0.5223122388861867	-0.06719147737670009	0.284206648841572	0.0914688752326056	-0.15372137814960932	0.20184296476789898	0.09237596855993624	-0.1044116187645868	0.28283852156652645	0.051350888975754905	0.010721283976046048	0.2141244427140498	0.05438933521978073	-0.20559906457400934	0.3322393898788588	0.04453503291950378	-0.051875027477254976	-0.017252996011403232	1.5511635339460885	-0.03409777563915879	0.31328375511375184	1.5469773647940936	-0.06571578005986782	0.13532915824189318	1.566743685580618	-0.14625519214817892	-0.05659822363653019	0.800647304666786	0.06024479065979041	-0.07748568679074566	0.6942827156120146	0.013301579013096494	-0.09086572251007743	0.8171185931216554	-0.07163007983309458	0.32595193968872843	0.797325200825407	0.003962821907066438	0.33729482043477177	0.6899628663903407	-0.04696413969001102	0.32710764085019295	0.8132369204923828	-0.12116128689526605	-0.06273025472096144	0.3978623947895197	-0.0655802656737868	-0.07783561162525146	0.2673282391109524	-0.04474978225137291	-0.08022813301107076	0.2854564130652413	-0.12864759582495716	0.3087987628637424	0.3946576190076643	-0.11947075635076394	0.3241872045676987	0.26404038038842303	-0.1041495979179525	0.3042231594748891	0.2802160779607965	-0.17924709784918755	0.03388087852151932	0.9632282890724221	-0.03976348633055693	0.22086777167271338	0.9621192265988054	-0.05793890586548099	-0.1302221878802988	1.1824558722820937	-0.04683048689641227	-0.04534262634753092	1.1647994381370477	-0.06391155940305576	-0.12661934498216168	0.9370125885306453	0.04722201022155212	-0.1446668635669258	0.9230770140642881	-0.01726692877916348	0.39564037468262037	1.1798924935291106	-0.11315636421229129	0.3108239572758078	1.1631005474739256	-0.11147045696340449	0.40323777226846025	0.9330021352976223	-0.019779643917695537	0.4065908208229694	0.9175675595133042	-0.08444201617041075
3	0.06	0.1313141768136128	0.9865917813911134	-0.0135700843828618	0.0255727512230533	0.9719630015354604	-0.0025301550136931	0.0078566207447405	0.5189979075320941	-0.0668398740406818	-5.786029690512861e-05	0.0957076997634551	-0.0798873934758541	-0.0026066534477977	0.0547996102329819	0.1140369985887294	-0.0549094645799572	0.0566212751576664	0.0590629022050828	0.0042120080845118	0.0428667164598272	-0.132272485223048	0.2387657482714271	0.969886558641859	-0.0218886000356373	0.237802607285403	0.5115547698133186	-0.0988107888606493	0.2418261534170583	0.0911221130396892	-0.1140020354787036	0.258603514275897	0.0402873988600583	0.0409274024451448	0.3144528011305645	0.039330597955291	-0.0106234043377567	0.231593691248719	0.0343659447124678	-0.1716141479370032	0.1433626908212578	1.5753678320953872	-0.0419329361318448	0.1467750307700882	1.8304148784049552	-0.0158699610585184	0.1398248123641789	1.7022911654794315	0.0319704821711728	-0.0201393220285487	1.4710225853424872	-0.0358588171852516	-0.0723220136694294	1.1953343713163262	-0.0289448588248158	-0.136446121770564	0.9461236254716388	0.0125922593983566	0.313226735125162	1.4749561699486284	-0.0626001451873513	0.3550667153008647	1.2002281877595036	-0.0815084165831901	0.4062650015462359	0.9500798217650924	-0.0657083513749198	-0.01801528482990372	1.0517506550197426	0.0647307184218911	0.2928731418322184	1.0497945168240435	0.035325474084366044	0.05846548060095791	1.0769872550868824	-0.155775033845155	0.17966173155100543	1.0759332732479747	-0.16704570116853457	-0.04865514684829722	0.5281733370187196	-0.053514485664516054	0.08240277094371537	0.5254901889970238	-0.04891128570139266	-0.0579277458214959	0.097710801998654	-0.10529453735938815	0.042080111799116415	0.09697380230823804	-0.07734329903581591	-0.015160815747678608	0.05843641035413438	0.07153716423042968	-0.08347172685685258	0.05027878935447316	0.016327800060456192	0.004709317800567603	0.056854070382246547	-0.1814177542912928	0.3010334768018722	0.522914617836135	-0.10528524985403706	0.18302416989616688	0.5224307401711468	-0.07226822288304795	0.2864649540725238	0.0913692224271162	-0.1545961889295337	0.20173694526106878	0.09233806880030548	-0.10682745307372486	0.28086124702597237	0.05100356936090289	0.00788753579267889	0.2173376562411442	0.05482352985843719	-0.20650633388952197	0.33277308310294085	0.04478931453232815	-0.052612441821555826	-0.017229160918820124	1.551104086083	-0.0365979799790111	0.31360277194762587	1.5482062753091363	-0.06492591801943942	0.13662283423738736	1.565800383610637	-0.14756595651995819	-0.05804316455539654	0.8003566511088118	0.05721454900326279	-0.07871885622195882	0.6947498052035446	0.010045682344029605	-0.0910953231178459	0.817415289039387	-0.07416562885878468	0.325554563910873	0.7966347208439701	0.004942757313248501	0.3379154834409741	0.6895891162536525	-0.04670238006930976	0.3304617626082529	0.8135062039493866	-0.12111801208748829	-0.06375144809391892	0.39914094777075637	-0.06776761507705174	-0.07944809586752197	0.26871633283077934	-0.0453651804598442	-0.08030951539834624	0.2863755218599382	-0.129221742371445	0.3099463451896878	0.3951941534997049	-0.12126440281059941	0.3258827769854391	0.2649467239775274	-0.10474218991376098	0.30697086577709515	0.28011364299511377	-0.18108712728361787	0.03422492797811283	0.9627332081114225	-0.04179202757514221	0.22184873806198568	0.9618204652259543	-0.05919883444255214	-0.13187179486789335	1.1799414135331583	-0.049377618027710915	-0.0446283381956086	1.1619868927442667	-0.06295620656426776	-0.1273055880887125	0.9375066064324773	0.049610250569100296	-0.14529143545585887	0.9209488664410139	-0.014660480641382602	0.3991879793164747	1.1795252078234597	-0.1137236781006574	0.30965837797164314	1.1611637688302205	-0.11160708154341871	0.4062356275033386	0.9316824234191385	-0.021425373898676638	0.40803385765100897	0.9171221823896791	-0.08541240233579839
